<svg fill="#3b82f6" role="img" viewBox="0 0 24 24" xmlns="http://www.w3.org/2000/svg"><title>Wi-Fi</title><path d="M12 18.5a1.5 1.5 0 1 1 0 3 1.5 1.5 0 0 1 0-3zm0-4.5a7.97 7.97 0 0 1 5.657 2.343 1 1 0 0 1-1.414 1.414 6 6 0 0 0-8.486 0 1 1 0 0 1-1.414-1.414A7.97 7.97 0 0 1 12 14zm0-5a12.95 12.95 0 0 1 9.192 3.808 1 1 0 0 1-1.414 1.414A11 11 0 0 0 12 11a11 11 0 0 0-7.778 3.222 1 1 0 0 1-1.414-1.414A12.95 12.95 0 0 1 12 9zm0-5C16.954 4 21.5 5.993 24.728 9.272L24 9.95a1 1 0 0 1-1.414 0l-.728-.728A15.97 15.97 0 0 0 12 6a15.97 15.97 0 0 0-9.858 3.222 1 1 0 0 1-1.414-1.414A17.95 17.95 0 0 1 12 4z"/></svg>
